<svg version="1.1" xmlns="http://www.w3.org/2000/svg" xmlns:xlink="http://www.w3.org/1999/xlink" width="48" height="48"><defs><linearGradient x1="14.22989" y1="14.22989" x2="50.03357" y2="50.03357" gradientUnits="userSpaceOnUse" id="color-1"><stop offset="0.4" stop-color="#000000" stop-opacity="0.42"></stop><stop offset="1" stop-color="#000000" stop-opacity="0"></stop></linearGradient><filter id="dropshadow-base"><feColorMatrix type="matrix" values="0 0 0 0 0  0 0 0 0 0  0 0 0 0 0  0 0 0 .8 0"></feColorMatrix> <feOffset dx="0" dy="1"></feOffset> <feGaussianBlur stdDeviation="1"></feGaussianBlur> <feComposite in="SourceGraphic"></feComposite></filter><filter id="dropshadow-banner" x="-10%" y="-10%" width="120%" height="130%"><feColorMatrix type="matrix" values="0 0 0 0 0  0 0 0 0 0  0 0 0 0 0  0 0 0 .4 0"></feColorMatrix> <feOffset dx="0" dy="1"></feOffset> <feGaussianBlur stdDeviation="0.5"></feGaussianBlur> <feComposite in="SourceGraphic"></feComposite></filter></defs><g fill="none" fill-rule="nonzero" stroke="none" stroke-width="none" stroke-linecap="butt" stroke-linejoin="miter" stroke-miterlimit="10" stroke-dasharray="" stroke-dashoffset="0" font-family="none" font-weight="none" font-size="none" text-anchor="none" style="mix-blend-mode: normal"><path d="M4,40c-1.10457,0 -2,-0.89543 -2,-2v-28c0,-1.10457 0.89543,-2 2,-2h40c1.10457,0 2,0.89543 2,2v28c0,1.10457 -0.89543,2 -2,2z" id="base 1 9" fill="#2da894" stroke-width="1"></path><path d="M14.22989,28.88505v-13.67815c0,-0.53736 0.43965,-0.97701 0.97701,-0.97701h12.70114c0.26868,0 0.51293,0.10991 0.69001,0.287l3.62105,3.62105h0.57399c0.26868,0 0.51293,0.10991 0.69001,0.287l12.51689,12.51689v7.05818c0,1.10457 -0.89543,2 -2,2h-18.65516z" fill="url(#color-1)" stroke-width="1"></path><path d="M32.7931,18.13793h-1.95402v8.7931h-12.70114v1.95402c0,0.53736 0.43965,0.97701 0.97701,0.97701h10.74712l3.90804,3.90804v-14.65516c0,-0.53736 -0.43965,-0.97701 -0.97701,-0.97701zM28.88505,24v-8.7931c0,-0.53736 -0.43965,-0.97701 -0.97701,-0.97701h-12.70114c-0.53736,0 -0.97701,0.43965 -0.97701,0.97701v13.67815l3.90804,-3.90804h9.77011c0.53736,0 0.97701,-0.43965 0.97701,-0.97701z" fill="none" stroke-width="0"></path><path d="M33.77011,19.11495v14.65516l-3.90804,-3.90804h-10.74712c-0.53736,0 -0.97701,-0.43965 -0.97701,-0.97701v-1.95402h12.70114v-8.7931h1.95402c0.53736,0 0.97701,0.43965 0.97701,0.97701zM27.90804,24.97701h-9.77011l-3.90804,3.90804v-13.67815c0,-0.53736 0.43965,-0.97701 0.97701,-0.97701h12.70114c0.53736,0 0.97701,0.43965 0.97701,0.97701v8.7931c0,0.53736 -0.43965,0.97701 -0.97701,0.97701z" fill="#ffffff" stroke-width="0"></path><path d="M2,24c0,-12.15026 9.84974,-22 22,-22c12.15026,0 22,9.84974 22,22c0,12.15026 -9.84974,22 -22,22c-12.15026,0 -22,-9.84974 -22,-22z" id="base 1 5 1" fill="none" stroke-width="1"></path><path d="M2,24c0,-12.15026 9.84974,-22 22,-22c12.15026,0 22,9.84974 22,22c0,12.15026 -9.84974,22 -22,22c-12.15026,0 -22,-9.84974 -22,-22z" id="base 1 1 1" fill="none" stroke-width="1"></path><g fill="#000000" stroke-width="1" font-family="Roboto, sans-serif" font-weight="400" font-size="14" text-anchor="start"></g><rect x="2" y="2" width="44" height="22" fill="none" stroke-width="1"></rect><path d="M2,24v-22h44v22z" fill="none" stroke-width="1"></path><path d="M2,24v-22h44v22z" fill="none" stroke-width="1"></path><path d="M2,24v-22h44v22z" fill="none" stroke-width="1"></path><path d="M2,24v-22h44v22z" fill="none" stroke-width="1"></path><g fill="#000000" stroke-width="1" font-family="Roboto, sans-serif" font-weight="400" font-size="14" text-anchor="start"></g><rect x="2" y="2" width="44" height="22" fill="none" stroke-width="1"></rect><path d="M2,24v-22h44v22z" fill="none" stroke-width="1"></path><path d="M2,24v-22h44v22z" fill="none" stroke-width="1"></path><path d="M2,24v-22h44v22z" fill="none" stroke-width="1"></path><path d="M2,24v-22h44v22z" fill="none" stroke-width="1"></path></g></svg>